<svg xmlns="http://www.w3.org/2000/svg" width="658" height="326" viewBox="0 0 658 326" role="img" aria-label="Source health: 1 flaky  6 healthy  29 unknown">
<style>.l{font:12px -apple-system,BlinkMacSystemFont,Segoe UI,Helvetica,Arial,sans-serif;fill:#57606a}.h{font:600 13px -apple-system,BlinkMacSystemFont,Segoe UI,Helvetica,Arial,sans-serif;fill:#24292f}.s{font:11px -apple-system,BlinkMacSystemFont,Segoe UI,Helvetica,Arial,sans-serif;fill:#8b949e}@media (prefers-color-scheme:dark){.l{fill:#8b949e}.h{fill:#e6edf3}}</style>
<text x="14" y="26" class="h">Source health</text>
<text x="644" y="26" class="s" text-anchor="end">2026-07-17 10:48 UTC</text>
<text x="14" y="41" class="s">1 flaky  6 healthy  29 unknown</text>
<g><title>Seðlabanki: flaky · 50% of 4 obs · httpx.ReadTimeout: The read operation timed out</title><circle cx="19" cy="56" r="5" fill="#d29922"/><text x="32" y="60" class="l">Seðlabanki</text></g>
<g><title>Byggðastofnun: unknown · 100% of 1 obs</title><circle cx="229" cy="56" r="5" fill="#8b949e"/><text x="242" y="60" class="l">Byggðastofnun</text></g>
<g><title>car (island.is): unknown · 100% of 1 obs</title><circle cx="439" cy="56" r="5" fill="#8b949e"/><text x="452" y="60" class="l">car (island.is)</text></g>
<g><title>Dómstólar: unknown · 100% of 1 obs</title><circle cx="19" cy="78" r="5" fill="#8b949e"/><text x="32" y="82" class="l">Dómstólar</text></g>
<g><title>EEA SDI: unknown · 100% of 1 obs</title><circle cx="229" cy="78" r="5" fill="#8b949e"/><text x="242" y="82" class="l">EEA SDI</text></g>
<g><title>Farsæld barna: unknown · 100% of 1 obs</title><circle cx="439" cy="78" r="5" fill="#8b949e"/><text x="452" y="82" class="l">Farsæld barna</text></g>
<g><title>Ferðamálastofa: unknown · 100% of 1 obs</title><circle cx="19" cy="100" r="5" fill="#8b949e"/><text x="32" y="104" class="l">Ferðamálastofa</text></g>
<g><title>Fjárlög: unknown · 100% of 1 obs</title><circle cx="229" cy="100" r="5" fill="#8b949e"/><text x="242" y="104" class="l">Fjárlög</text></g>
<g><title>Fuel: unknown · 100% of 1 obs</title><circle cx="439" cy="100" r="5" fill="#8b949e"/><text x="452" y="104" class="l">Fuel</text></g>
<g><title>Gengi: unknown · 100% of 1 obs</title><circle cx="19" cy="122" r="5" fill="#8b949e"/><text x="32" y="126" class="l">Gengi</text></g>
<g><title>Heimsmarkmið: unknown · 100% of 1 obs</title><circle cx="229" cy="122" r="5" fill="#8b949e"/><text x="242" y="126" class="l">Heimsmarkmið</text></g>
<g><title>HMS: unknown · 100% of 1 obs</title><circle cx="439" cy="122" r="5" fill="#8b949e"/><text x="452" y="126" class="l">HMS</text></g>
<g><title>Landlæknir: unknown · 100% of 1 obs</title><circle cx="19" cy="144" r="5" fill="#8b949e"/><text x="32" y="148" class="l">Landlæknir</text></g>
<g><title>Laun: unknown · 100% of 1 obs</title><circle cx="229" cy="144" r="5" fill="#8b949e"/><text x="242" y="148" class="l">Laun</text></g>
<g><title>LMI: unknown · 100% of 1 obs</title><circle cx="439" cy="144" r="5" fill="#8b949e"/><text x="452" y="148" class="l">LMI</text></g>
<g><title>LMI HRL: unknown · 100% of 1 obs</title><circle cx="19" cy="166" r="5" fill="#8b949e"/><text x="32" y="170" class="l">LMI HRL</text></g>
<g><title>Mælaborð landb.: unknown · 100% of 1 obs</title><circle cx="229" cy="166" r="5" fill="#8b949e"/><text x="242" y="170" class="l">Mælaborð landb.</text></g>
<g><title>Maskína: unknown · 100% of 1 obs</title><circle cx="439" cy="166" r="5" fill="#8b949e"/><text x="452" y="170" class="l">Maskína</text></g>
<g><title>Nasdaq Iceland: unknown · 100% of 1 obs</title><circle cx="19" cy="188" r="5" fill="#8b949e"/><text x="32" y="192" class="l">Nasdaq Iceland</text></g>
<g><title>Náttúrufr.stofnun: unknown · 0% of 1 obs · AssertionError: https://gis.natt.is/geoserver/wfs?service=WFS&amp;version=2.0.0&amp;requ</title><circle cx="229" cy="188" r="5" fill="#8b949e"/><text x="242" y="192" class="l">Náttúrufr.stofnun</text></g>
<g><title>Opnir reikningar: unknown · 100% of 1 obs</title><circle cx="439" cy="188" r="5" fill="#8b949e"/><text x="452" y="192" class="l">Opnir reikningar</text></g>
<g><title>Reykjavíkurborg: unknown · 100% of 1 obs</title><circle cx="19" cy="210" r="5" fill="#8b949e"/><text x="32" y="214" class="l">Reykjavíkurborg</text></g>
<g><title>Samgöngustofa: unknown · 0% of 1 obs · failed on setup with "httpx.ConnectTimeout: timed out"</title><circle cx="229" cy="210" r="5" fill="#8b949e"/><text x="242" y="214" class="l">Samgöngustofa</text></g>
<g><title>Skatturinn: unknown · 100% of 1 obs</title><circle cx="439" cy="210" r="5" fill="#8b949e"/><text x="452" y="214" class="l">Skatturinn</text></g>
<g><title>Skipulagsmál: unknown · 100% of 1 obs</title><circle cx="19" cy="232" r="5" fill="#8b949e"/><text x="32" y="236" class="l">Skipulagsmál</text></g>
<g><title>Tekjusagan: unknown · 100% of 1 obs</title><circle cx="229" cy="232" r="5" fill="#8b949e"/><text x="242" y="236" class="l">Tekjusagan</text></g>
<g><title>Tenders: unknown · 100% of 1 obs</title><circle cx="439" cy="232" r="5" fill="#8b949e"/><text x="452" y="236" class="l">Tenders</text></g>
<g><title>Velsældarvísar: unknown · 100% of 1 obs</title><circle cx="19" cy="254" r="5" fill="#8b949e"/><text x="32" y="258" class="l">Velsældarvísar</text></g>
<g><title>Vernd: unknown · 100% of 1 obs</title><circle cx="229" cy="254" r="5" fill="#8b949e"/><text x="242" y="258" class="l">Vernd</text></g>
<g><title>Vinnumálastofnun: unknown · 100% of 1 obs</title><circle cx="439" cy="254" r="5" fill="#8b949e"/><text x="452" y="258" class="l">Vinnumálastofnun</text></g>
<g><title>CO2: healthy · 100% of 4 obs</title><circle cx="19" cy="276" r="5" fill="#2da44e"/><text x="32" y="280" class="l">CO2</text></g>
<g><title>Hagstofa Íslands: healthy · 100% of 4 obs</title><circle cx="229" cy="276" r="5" fill="#2da44e"/><text x="242" y="280" class="l">Hagstofa Íslands</text></g>
<g><title>Loftgæði: healthy · 100% of 4 obs</title><circle cx="439" cy="276" r="5" fill="#2da44e"/><text x="452" y="280" class="l">Loftgæði</text></g>
<g><title>Ríkisreikningur: healthy · 100% of 4 obs</title><circle cx="19" cy="298" r="5" fill="#2da44e"/><text x="32" y="302" class="l">Ríkisreikningur</text></g>
<g><title>Umferð: healthy · 100% of 4 obs</title><circle cx="229" cy="298" r="5" fill="#2da44e"/><text x="242" y="302" class="l">Umferð</text></g>
<g><title>Veður: healthy · 100% of 4 obs</title><circle cx="439" cy="298" r="5" fill="#2da44e"/><text x="452" y="302" class="l">Veður</text></g>
</svg>
